<svg xmlns="http://www.w3.org/2000/svg" viewBox="0 0 1024 1024"><path fill="currentColor" d="M430.56 501.95C422.89 503.93 419.98 504 343.06 503.99l-79.56-.01-5.14-2.95c-6.59-3.78-11.03-9.17-12.94-15.71-1.35-4.58-1.35-5.82-.05-10.8 1.81-6.93 5.45-11.84 10.94-14.78l4.19-2.24L415.17 456.5l2.91-3.27c4.11-4.59 4.14-11.16.08-15.22l-2.83-2.83-50.42-.43-50.41-.42-8.94-2.74c-4.92-1.51-11.22-3.9-14-5.3-14.63-7.37-30.41-21.73-38.31-34.85-15.36-25.52-17.59-59.11-5.89-88.73 8.32-21.03 23.76-38.46 42.64-48.11 19.03-9.73 19.99-9.81 112.5-9.39 57.33.26 76.9.65 79.68 1.59 7.01 2.39 15.51 8.99 19.76 15.35 7.38 11.06 9.66 23.02 6.47 33.92-4.19 14.27-14.97 25.58-28.84 30.27-4.41 1.49-12.43 1.66-77.28 1.66-2.03 0-4.01 0-5.94 0-62.39 0-69.47 0-73.47 3.5-.63.56-1.19 1.21-1.88 1.95-2.13 2.31-2.5 3.67-2.48 9.08.02 7.65 1.95 10.87 8.53 14.23l4.42 2.27 66.08-.04c63.83-.04 66.29.03 72.7 2.01 14.46 4.46 27.07 16.42 32.7 31.01l3.19 8.29-.32 20.6c-.31 20.04-.4 20.76-3.06 26.44-3.26 6.97-13.01 17.38-27.26 29.1-18.31 15.07-29.87 21.63-44.94 25.51zM595.8 777.66c-19.94 8.11-43.74-.52-55.24-20-6.4-10.86-6.56-12.8-6.56-78.61 0-47.09.3-61.06 1.48-68.94 5.69-37.86 31.89-67.52 69.63-78.8l9.39-2.81h43c42.23 0 43.14.04 51 2.35 37.11 10.93 62.43 38.95 70.41 77.95.72 3.49 1.08 27.03 1.07 69l-.02 63.7-2.46 6.96c-9.85 27.94-39.64 40.15-65.71 26.94-7.66-3.89-17.2-13.89-21.08-22.1l-3.21-6.8-.5-55c-.48-53.13-.57-55.15-2.59-59.5-2.53-5.44-8.75-11.26-14.03-13.13-2.36-.83-7.98-1.36-14.38-1.35-11.97.03-17.07 1.71-22.9 7.54-6.77 6.76-6.55 4.74-7.12 64.94-.51 53.89-.55 54.56-2.81 60.22-4.99 12.46-14.86 22.36-27.37 27.44zM750.47 502.47c-5 1.3-15.01 1.52-65.93 1.44-55.65-.08-60.65-.23-68.46-2.03-16.78-3.87-30.65-11.54-43.94-24.31-12.37-11.88-19.34-23.08-24.01-38.57l-2.57-8.5-.32-73-.32-73 2.21-6.89c2.56-7.97 8.45-17.29 13.61-21.55 10.56-8.7 23.3-12.28 36.07-10.14 4.23.71 9.27 2.11 11.19 3.1 10.65 5.48 18.61 14.65 22.91 26.41l2.59 7.07 1 125.65 4.21 3.92 4.21 3.93 48.29.01c26.56 0 50.99.44 54.29.98 22.09 3.58 37.29 19.87 38.3 41.01.33 6.84-.02 9.75-1.76 14.92-4.98 14.72-16.67 25.67-31.57 29.55zM371.5 785.8c-9.12 1.97-11.94 2.05-19 .54-18.71-3.99-33.55-19.6-36.47-38.34-.56-3.58-1.03-21.35-1.04-39.5-.03-30.79-.17-33.29-2.03-37.39-1.27-2.81-7.5-10.05-17.26-20.06-27.29-28.01-45.07-50.8-49.45-63.39-5.71-16.42-1.24-35.2 10.58-44.51 8.29-6.52 11.72-7.62 23.67-7.62 9.65 0 11.55.29 15.47 2.37 7.44 3.94 10 6.19 18.44 16.23 22.47 26.74 34.63 40.72 37.49 43.13 1.74 1.46 4.74 2.96 6.67 3.32 7.24 1.36 9.54-.52 29.67-24.11 27.89-32.68 28.87-33.71 35.91-37.53 6.14-3.32 6.71-3.44 17.35-3.44 10.66 0 11.2.11 17.4 3.47 11.27 6.11 17.31 16.37 18.6 31.59.59 6.92.34 8.98-1.9 16-2.81 8.84-5.89 13.65-20.16 31.57-10.43 13.09-17.5 20.94-34.1 37.87-8.23 8.4-11.69 12.68-12.81 15.88-1.26 3.6-1.53 10.46-1.53 39.04 0 37.53-.38 40.97-5.62 51.32-3.35 6.61-13.46 16.76-19.91 19.99-2.73 1.37-7.22 2.98-9.97 3.57zM548.64 554.88c-6.12 1.9-9.09 2.11-28 2-11.62-.06-22.04-.31-23.14-.54-19.28-4.15-31.21-16.45-34.53-35.58-1.51-8.71.57-18.9 5.59-27.39 4.48-7.58 9.24-11.81 18.05-16.04l7.11-3.42 27.89.29 27.89.3 5.74 2.69c7.59 3.56 14.64 10.78 18.84 19.32 3.29 6.69 3.42 7.37 3.42 18.47 0 10.5-.24 12.01-2.71 17.03-6.03 12.29-13.76 19.05-26.15 22.87z"/></svg>
